<svg width="96" height="96" viewBox="0 0 96 96" fill="none" xmlns="http://www.w3.org/2000/svg">
<path d="M79.2661 0H16.7339C7.49204 0 0 7.49204 0 16.7339V79.2661C0 88.508 7.49204 96 16.7339 96H79.2661C88.508 96 96 88.508 96 79.2661V16.7339C96 7.49204 88.508 0 79.2661 0Z" fill="#EDEDED" fill-opacity="0.7"/>
<path d="M47.9982 71.3832C69.5364 71.3832 86.9965 61.2281 86.9965 48.7013C86.9965 36.1743 69.5364 26.0193 47.9982 26.0193C26.4601 26.0193 9 36.1743 9 48.7013C9 61.2281 26.4601 71.3832 47.9982 71.3832Z" fill="#7A7A7A"/>
<path d="M47.9983 69.5162C67.7639 69.5162 83.7871 60.197 83.7871 48.7011C83.7871 37.2052 67.7639 27.886 47.9983 27.886C28.2327 27.886 12.2095 37.2052 12.2095 48.7011C12.2095 60.197 28.2327 69.5162 47.9983 69.5162Z" fill="#BEBEBE"/>
<path d="M44.1475 55.9951C38.763 55.9951 36.2373 52.5023 36.2373 48.6588C36.2373 44.8153 38.7559 41.2942 44.1475 41.2942C49.539 41.2942 52.0576 44.7622 52.0576 48.6588C52.0576 52.5555 49.5319 55.9951 44.1475 55.9951ZM44.1475 44.9145C41.3419 44.9145 40.0773 46.6609 40.0773 48.6588C40.0773 50.6567 41.3667 52.3783 44.1475 52.3783C46.9283 52.3783 48.2177 50.6071 48.2177 48.6588C48.2177 46.6326 46.953 44.9145 44.1475 44.9145Z" fill="#7A7A7A"/>
<path d="M56.9854 55.9951C51.6009 55.9951 49.0752 52.5023 49.0752 48.6588C49.0752 44.8153 51.5761 41.2942 56.9854 41.2942C62.3946 41.2942 64.8955 44.7622 64.8955 48.6588C64.8955 52.5555 62.3698 55.9951 56.9854 55.9951ZM56.9854 44.9145C54.1798 44.9145 52.9152 46.6609 52.9152 48.6588C52.9152 50.6567 54.2046 52.3783 56.9854 52.3783C59.7662 52.3783 61.0556 50.6071 61.0556 48.6588C61.0733 46.6326 59.791 44.9145 56.9854 44.9145Z" fill="#7A7A7A"/>
<path d="M56.8542 45.6301C55.5187 45.6301 54.9165 46.4626 54.9165 47.4013C54.9165 48.3401 55.5293 49.1725 56.8542 49.1725C58.1791 49.1725 58.7919 48.3294 58.7919 47.4013C58.7919 46.4732 58.1897 45.6301 56.8542 45.6301Z" fill="#7A7A7A"/>
<path d="M44.1476 47.8049C42.8511 47.8049 42.2666 48.6126 42.2666 49.5336C42.2666 50.4546 42.8617 51.2517 44.1476 51.2517C45.4335 51.2517 46.0251 50.4334 46.0251 49.5336C46.0251 48.6339 45.4441 47.8049 44.1476 47.8049Z" fill="#7A7A7A"/>
<path d="M22.0504 55.8429H21.852C21.6106 55.8438 21.3713 55.7972 21.1479 55.7057C20.9245 55.6141 20.7213 55.4795 20.5499 55.3094C20.3785 55.1394 20.2423 54.9372 20.1491 54.7145C20.0558 54.4918 20.0073 54.2529 20.0064 54.0115V47.0436C20.0045 46.8022 20.0502 46.5627 20.1409 46.3389C20.2316 46.1152 20.3654 45.9114 20.5349 45.7394C20.7043 45.5674 20.9059 45.4304 21.1282 45.3363C21.3506 45.2422 21.5893 45.1928 21.8307 45.1909H22.061C22.5505 45.1928 23.0194 45.3883 23.3652 45.7348C23.711 46.0813 23.9056 46.5505 23.9066 47.04V53.9938C23.8992 54.4831 23.7011 54.9503 23.3544 55.2957C23.0076 55.6411 22.5397 55.8374 22.0504 55.8429Z" fill="#7A7A7A"/>
<path d="M21.9442 41.3687C20.4918 41.3687 19.8364 42.272 19.8364 43.3099C19.8364 44.3478 20.5059 45.2369 21.9442 45.2369C23.3824 45.2369 24.0696 44.3195 24.0696 43.3099C24.0696 42.3003 23.4001 41.3687 21.9442 41.3687Z" fill="#7A7A7A"/>
<path d="M67.9028 55.9526H67.6832C67.4315 55.9512 67.1826 55.9002 66.9506 55.8027C66.7186 55.7051 66.5081 55.5627 66.3312 55.3838C66.1542 55.2048 66.0142 54.9928 65.9192 54.7597C65.8242 54.5267 65.776 54.2772 65.7774 54.0255V43.2708C65.776 43.0191 65.8242 42.7697 65.9192 42.5366C66.0142 42.3036 66.1542 42.0915 66.3312 41.9126C66.5081 41.7336 66.7186 41.5913 66.9506 41.4937C67.1826 41.3961 67.4315 41.3451 67.6832 41.3438H67.9028C68.4127 41.3465 68.9009 41.5506 69.2611 41.9115C69.6213 42.2724 69.8245 42.7609 69.8263 43.2708V54.0255C69.819 54.5337 69.6141 55.0191 69.2551 55.3788C68.896 55.7386 68.411 55.9444 67.9028 55.9526Z" fill="#7A7A7A"/>
<path d="M68.9369 49.0273L69.0609 48.8608C69.2065 48.6639 69.3894 48.4977 69.5992 48.3716C69.809 48.2454 70.0416 48.1619 70.2838 48.1257C70.5259 48.0895 70.7728 48.1014 71.0103 48.1607C71.2479 48.2199 71.4714 48.3254 71.6681 48.4711H71.6858L76.5318 52.2615C76.727 52.4097 76.891 52.595 77.0144 52.8067C77.1379 53.0184 77.2184 53.2523 77.2513 53.4952C77.2842 53.738 77.2689 53.9849 77.2062 54.2218C77.1435 54.4588 77.0347 54.681 76.8861 54.8758L76.7585 55.0423C76.4599 55.4386 76.0165 55.7005 75.5253 55.7709C75.0341 55.8413 74.535 55.7143 74.1372 55.4178L69.3195 51.6274C68.9327 51.327 68.677 50.8888 68.6057 50.4042C68.5344 49.9197 68.6531 49.4264 68.9369 49.0273Z" fill="#7A7A7A"/>
<path d="M76.27 45.3964L71.424 49.1868C71.0287 49.4856 70.5313 49.616 70.0403 49.5497C69.5492 49.4833 69.1044 49.2255 68.8026 48.8325L68.6751 48.6625C68.5264 48.4677 68.4176 48.2455 68.3549 48.0085C68.2923 47.7716 68.2769 47.5247 68.3098 47.2819C68.3427 47.039 68.4232 46.805 68.5467 46.5934C68.6701 46.3817 68.8341 46.1964 69.0293 46.0482L73.8753 42.2578C74.2685 41.9587 74.7644 41.8279 75.254 41.8944C75.7436 41.9608 76.1868 42.219 76.486 42.6121L76.6136 42.7821C76.9052 43.1778 77.0323 43.6711 76.9682 44.1584C76.9041 44.6458 76.6539 45.0895 76.27 45.3964Z" fill="#7A7A7A"/>
<path d="M35.3128 51.9711C34.5795 51.6593 33.7116 52.421 32.8827 52.421C29.8964 52.421 28.8621 50.3735 28.8621 48.7262C28.8621 46.955 30.0594 44.8296 32.9323 44.9288C33.8108 44.9607 34.5901 45.7046 35.2773 45.4318C36.457 44.9607 36.6305 43.271 37.7854 42.5341C38.2282 42.2401 34.0765 41.312 32.8579 41.312C28.5822 41.312 25.0186 43.7917 25.0186 48.6767C25.0186 53.4589 28.5078 56.0236 32.8579 56.0236C33.9206 56.0236 38.0121 55.3966 37.927 54.8829C36.7297 54.1567 36.4995 52.4812 35.3128 51.9711Z" fill="#7A7A7A"/>
<path d="M32.2769 45.6301C30.9839 45.6301 30.3994 46.4378 30.3994 47.3588C30.3994 48.2798 30.9945 49.0875 32.2769 49.0875C33.5592 49.0875 34.1544 48.2728 34.1544 47.373C34.1544 46.4732 33.5699 45.6301 32.2769 45.6301Z" fill="#7A7A7A"/>
</svg>
