<svg width="96" height="96" viewBox="0 0 96 96" fill="none" xmlns="http://www.w3.org/2000/svg">
<g clip-path="url(#clip0)">
<rect width="96" height="96" rx="12" fill="#EDEDED" fill-opacity="0.7"/>
<path d="M48.2052 75.1839H46.8082C46.5877 75.1839 46.4406 75.1117 46.2935 75.0395C46.22 74.9673 46.1465 74.8229 46.1465 74.6785C46.1465 74.5341 46.22 74.3897 46.2935 74.3175C46.3671 74.2453 46.5877 74.1731 46.8082 74.1731H48.2052C48.4258 74.1731 48.5729 74.2453 48.7199 74.3175C48.7934 74.3897 48.867 74.5341 48.867 74.6785C48.867 74.8229 48.7934 74.9673 48.7199 75.0395C48.5729 75.1839 48.4258 75.1839 48.2052 75.1839Z" fill="#7A7A7A"/>
<path d="M44.0874 77.1336V72.1517C44.0874 71.8629 44.1609 71.7185 44.2345 71.5741C44.3815 71.4297 44.5286 71.3574 44.6756 71.3574C44.8962 71.3574 45.0433 71.4297 45.1167 71.5741C45.2638 71.7185 45.2638 71.8629 45.2638 72.1517V77.1336C45.2638 77.4225 45.1903 77.5669 45.1167 77.7113C44.9698 77.8557 44.8227 77.9278 44.6756 77.9278C44.455 77.9278 44.308 77.8557 44.2345 77.7113C44.1609 77.639 44.0874 77.4225 44.0874 77.1336Z" fill="#7A7A7A"/>
<path d="M38.7206 72.2239V74.0289H41.5146V72.2239C41.5146 71.9351 41.5882 71.7907 41.6617 71.6463C41.8087 71.5018 41.9558 71.4297 42.1029 71.4297C42.3234 71.4297 42.4705 71.5018 42.5439 71.6463C42.691 71.7907 42.691 71.9351 42.691 72.2239V77.2058C42.691 77.4946 42.6175 77.639 42.4705 77.7834C42.544 77.8557 42.3234 77.9278 42.1764 77.9278C41.9558 77.9278 41.8087 77.8557 41.7352 77.7113C41.5882 77.5669 41.5882 77.4225 41.5882 77.1336V75.0397H38.7941V77.1336C38.7941 77.4225 38.7206 77.5669 38.6471 77.7113C38.5 77.8557 38.353 77.9278 38.2059 77.9278C37.9853 77.9278 37.8383 77.8557 37.7647 77.7113C37.6177 77.5669 37.6177 77.4225 37.6177 77.1336V72.1517C37.6177 71.8629 37.6912 71.7185 37.7647 71.5741C37.9118 71.4297 38.0588 71.3574 38.2059 71.3574C38.4265 71.3574 38.5735 71.4297 38.6471 71.5741C38.6471 71.7185 38.7206 71.9351 38.7206 72.2239Z" fill="#7A7A7A"/>
<path d="M36.0727 75.834C36.0727 76.0507 35.9992 76.2672 35.9256 76.4839C35.8521 76.7005 35.6315 76.9171 35.4845 77.1337C35.2639 77.3503 34.9698 77.5669 34.6756 77.7113C34.308 77.8557 33.9404 77.928 33.4993 77.928C33.1316 77.928 32.8375 77.928 32.5434 77.8557C32.2493 77.7835 32.0287 77.7113 31.8081 77.5669C31.5875 77.4225 31.3669 77.2781 31.2199 77.0615C31.0728 76.8449 30.9258 76.6283 30.7787 76.4116C30.6317 76.1951 30.5582 75.9063 30.4847 75.6175C30.4111 75.3287 30.4111 75.0398 30.4111 74.751C30.4111 74.2456 30.4847 73.8124 30.6317 73.3792C30.7787 72.946 30.9993 72.6572 31.2934 72.3684C31.5875 72.0796 31.8816 71.8629 32.2493 71.7185C32.6169 71.5741 33.0581 71.502 33.4257 71.502C33.9404 71.502 34.3815 71.5741 34.8227 71.7908C35.2639 72.0073 35.558 72.224 35.7786 72.5128C35.9992 72.8016 36.0727 73.0904 36.0727 73.3792C36.0727 73.5236 35.9992 73.668 35.9256 73.7402C35.8521 73.8846 35.705 73.8846 35.558 73.8846C35.4109 73.8846 35.2639 73.8124 35.1903 73.7402C35.1168 73.668 35.0433 73.5236 34.8962 73.307C34.7492 73.0182 34.5286 72.7294 34.308 72.585C34.0874 72.4405 33.7934 72.3684 33.4257 72.3684C32.911 72.3684 32.4699 72.585 32.1757 72.946C31.8816 73.3792 31.7346 73.8846 31.7346 74.6066C31.7346 75.112 31.8081 75.4731 31.9552 75.834C32.1022 76.1951 32.3228 76.4116 32.5434 76.556C32.764 76.7005 33.1316 76.7727 33.4257 76.7727C33.7934 76.7727 34.0874 76.7005 34.3815 76.4839C34.6021 76.2672 34.8227 76.0507 34.9698 75.6896C35.0433 75.5452 35.1168 75.4008 35.1903 75.2564C35.2639 75.1843 35.4109 75.112 35.558 75.112C35.705 75.112 35.8521 75.1843 35.9256 75.2564C36.0727 75.5452 36.0727 75.6896 36.0727 75.834Z" fill="#7A7A7A"/>
<path d="M27.7646 77.1336V72.1517C27.7646 71.8629 27.8382 71.7185 27.9117 71.5741C28.0588 71.4297 28.2058 71.3574 28.3529 71.3574C28.5735 71.3574 28.7205 71.4297 28.7941 71.5741C28.9411 71.7185 28.9411 71.8629 28.9411 72.1517V77.1336C28.9411 77.4225 28.8676 77.5669 28.7941 77.7113C28.647 77.8557 28.4999 77.9278 28.3529 77.9278C28.1323 77.9278 27.9852 77.8557 27.9117 77.7113C27.8382 77.639 27.7646 77.4225 27.7646 77.1336Z" fill="#7A7A7A"/>
<path d="M22.3235 72.2237V74.4619L24.8969 71.8627C25.044 71.7182 25.1175 71.6461 25.1911 71.5738C25.2646 71.4294 25.3381 71.4294 25.4852 71.4294C25.7058 71.4294 25.8528 71.5017 25.9264 71.5738C26.0733 71.7182 26.1469 71.7905 26.1469 72.0071C26.1469 72.2237 26.0733 72.3681 25.8528 72.5847L24.3087 74.0287L26.1469 76.5558C26.2939 76.7002 26.3674 76.9168 26.441 76.989C26.5145 77.1335 26.5145 77.2779 26.5145 77.3501C26.5145 77.4945 26.441 77.6389 26.3674 77.7111C26.2204 77.8555 26.0733 77.9277 25.8528 77.9277C25.7058 77.9277 25.5587 77.8554 25.4116 77.7833C25.2646 77.711 25.1911 77.6389 25.1175 77.4945C25.044 77.3501 24.9705 77.2778 24.8969 77.1334L23.3528 74.823L22.3235 75.8338V77.1334C22.3235 77.4222 22.25 77.5667 22.1765 77.7111C22.0294 77.8555 21.8088 77.9277 21.6618 77.9277C21.5882 77.9277 21.4412 77.9277 21.3676 77.8554C21.2941 77.7833 21.2206 77.7111 21.1471 77.6389C21.0735 77.4945 21 77.4223 21 77.3501C21 77.2779 21 77.0612 21 76.9168V72.2237C21 71.9349 21.0735 71.7905 21.1471 71.6461C21.2941 71.5017 21.4412 71.4294 21.6618 71.4294C21.8823 71.4294 22.0294 71.5017 22.1029 71.6461C22.25 71.7183 22.3235 71.9349 22.3235 72.2237Z" fill="#7A7A7A"/>
<path d="M72.6899 77.1336V72.1517C72.6899 71.8629 72.7635 71.7185 72.837 71.5741C72.9841 71.4297 73.1311 71.3574 73.2781 71.3574C73.4987 71.3574 73.6457 71.4297 73.7193 71.5741C73.8663 71.7185 73.8663 71.8629 73.8663 72.1517V77.1336C73.8663 77.4225 73.7928 77.5669 73.7193 77.7113C73.5722 77.8557 73.4251 77.9278 73.2781 77.9278C73.0576 77.9278 72.9105 77.8557 72.837 77.7113C72.7635 77.639 72.6899 77.4225 72.6899 77.1336Z" fill="#7A7A7A"/>
<path d="M67.3219 72.2239V74.0289H70.116V72.2239C70.116 71.9351 70.1895 71.7907 70.263 71.6463C70.4101 71.5018 70.5572 71.4297 70.7041 71.4297C70.9247 71.4297 71.0718 71.5018 71.1453 71.6463C71.2924 71.7907 71.2924 71.9351 71.2924 72.2239V77.2058C71.2924 77.4946 71.2188 77.639 71.0718 77.7834C70.9247 77.9278 70.7777 78.0001 70.6306 78.0001C70.4101 78.0001 70.263 77.9278 70.1895 77.7834C70.0425 77.639 70.0424 77.4946 70.0424 77.2058V75.0397H67.3219V77.1337C67.3219 77.4225 67.2484 77.5669 67.1749 77.7113C67.0279 77.8557 66.8808 77.9278 66.7337 77.9278C66.5132 77.9278 66.3661 77.8557 66.2926 77.7113C66.1455 77.5669 66.1455 77.4225 66.1455 77.1337V72.1517C66.1455 71.8629 66.219 71.7185 66.2926 71.5741C66.4396 71.4297 66.5867 71.3574 66.7337 71.3574C66.9543 71.3574 67.1014 71.4297 67.1749 71.5741C67.2484 71.7185 67.3219 71.9351 67.3219 72.2239Z" fill="#7A7A7A"/>
<path d="M64.6748 75.834C64.6748 76.0507 64.6013 76.2672 64.5278 76.4839C64.4542 76.7005 64.2337 76.9171 64.0866 77.1337C63.866 77.3503 63.5719 77.5669 63.2778 77.7113C62.9101 77.8557 62.5425 77.928 62.1013 77.928C61.7337 77.928 61.4396 77.928 61.1455 77.8557C60.8514 77.7835 60.6308 77.7113 60.4102 77.5669C60.1896 77.4225 59.9691 77.2781 59.822 77.0615C59.6749 76.8449 59.5279 76.6283 59.3808 76.4116C59.2338 76.1951 59.1602 75.9063 59.0867 75.6175C59.0132 75.3287 59.0132 75.0398 59.0132 74.751C59.0132 74.2456 59.0867 73.8124 59.2338 73.3792C59.3808 72.946 59.6014 72.6572 59.8955 72.3684C60.1896 72.0796 60.4838 71.8629 60.8514 71.7185C61.2191 71.5741 61.6601 71.502 62.0278 71.502C62.5425 71.502 62.9837 71.5741 63.4248 71.7908C63.866 72.0073 64.1601 72.224 64.3807 72.5128C64.6013 72.8016 64.6748 73.0904 64.6748 73.3792C64.6748 73.5236 64.6013 73.668 64.5278 73.7402C64.4542 73.8846 64.3072 73.8846 64.1601 73.8846C64.0131 73.8846 63.866 73.8124 63.7925 73.7402C63.719 73.668 63.6454 73.5236 63.4984 73.307C63.3513 73.0182 63.1307 72.7294 62.9101 72.585C62.6896 72.4405 62.3954 72.3684 62.0278 72.3684C61.5132 72.3684 61.072 72.585 60.7779 72.946C60.4838 73.3792 60.3367 73.8846 60.3367 74.6066C60.3367 75.112 60.4102 75.4731 60.5573 75.834C60.7044 76.1951 60.9249 76.4116 61.1455 76.556C61.4396 76.7005 61.7337 76.7727 62.0278 76.7727C62.3954 76.7727 62.6895 76.7005 62.9837 76.4839C63.2043 76.2672 63.4248 76.0507 63.5719 75.6896C63.6454 75.5452 63.719 75.4008 63.7925 75.2564C63.866 75.1843 64.0131 75.112 64.1601 75.112C64.3072 75.112 64.4542 75.1843 64.5278 75.2564C64.6748 75.5452 64.6748 75.6896 64.6748 75.834Z" fill="#7A7A7A"/>
<path d="M56.3667 77.1336V72.1517C56.3667 71.8629 56.4402 71.7185 56.5138 71.5741C56.6608 71.4297 56.8079 71.3574 56.9549 71.3574C57.1755 71.3574 57.3226 71.4297 57.3961 71.5741C57.5432 71.7185 57.5432 71.8629 57.5432 72.1517V77.1336C57.5432 77.4225 57.4696 77.5669 57.3961 77.7113C57.3961 77.8557 57.249 77.9278 57.0285 77.9278C56.8079 77.9278 56.6608 77.8557 56.5873 77.7113C56.4402 77.639 56.3667 77.4225 56.3667 77.1336Z" fill="#7A7A7A"/>
<path d="M50.9253 72.2237V74.4619L53.4987 71.8627C53.6458 71.7182 53.7193 71.6461 53.7928 71.5738C53.8664 71.4294 53.9399 71.4294 54.087 71.4294C54.3075 71.4294 54.4546 71.5017 54.5281 71.5738C54.6752 71.6461 54.6752 71.7905 54.6752 71.9349C54.6752 72.1515 54.6017 72.2959 54.3811 72.5125L52.7634 73.9566L54.6017 76.4836C54.7487 76.628 54.8222 76.8447 54.8957 76.9168C54.9692 77.0612 54.9692 77.2056 54.9692 77.2778C54.9692 77.4222 54.8957 77.5667 54.8222 77.6389C54.8222 77.8555 54.6017 77.9277 54.4546 77.9277C54.3075 77.9277 54.1605 77.8554 54.0134 77.7833C53.8664 77.711 53.7928 77.6389 53.7193 77.4945C53.6458 77.3501 53.5723 77.2778 53.4987 77.1334L51.9546 74.823L50.9253 75.8338V77.1334C50.9253 77.4222 50.8518 77.5667 50.7047 77.7111C50.5576 77.8555 50.4106 77.9277 50.2635 77.9277C50.1165 77.9277 50.0429 77.9277 49.9694 77.8554C49.8959 77.7833 49.8223 77.7111 49.7488 77.6389C49.6753 77.5667 49.6753 77.4945 49.6753 77.3501C49.6753 77.2779 49.6753 77.0612 49.6753 76.9168V72.2237C49.6753 71.9349 49.7488 71.7905 49.8223 71.6461C49.9694 71.5017 50.1165 71.4294 50.2635 71.4294C50.4841 71.4294 50.6312 71.5017 50.7047 71.6461C50.8518 71.7183 50.9253 71.9349 50.9253 72.2237Z" fill="#7A7A7A"/>
<path d="M59.2344 33.4513C56.4403 30.2022 52.3229 27.8196 47.2495 27.8196C46.8083 27.8196 46.2936 27.8196 45.7789 27.8917C40.8526 28.3972 36.0733 31.5741 33.5734 36.8448L33.8675 36.9893L33.5734 36.917C32.8381 38.7943 32.397 40.7437 32.397 42.8376C32.397 45.4369 33.1323 48.1805 35.044 51.0686C35.2646 51.1409 35.4117 51.213 35.6322 51.2853C35.7792 51.3574 35.8527 51.3574 35.9998 51.4297C33.8676 48.3972 33.0587 45.5813 33.0587 42.8376C33.0587 40.8881 33.4999 39.0109 34.2352 37.1337C36.6616 32.0795 41.2203 28.9748 45.9995 28.5416C46.4407 28.4693 46.9554 28.4693 47.3965 28.4693C52.2494 28.4693 56.2933 30.7798 58.9403 33.8845C61.3667 36.7004 62.249 40.0217 62.249 42.9098C62.249 44.5705 61.9549 46.0867 61.5137 47.3141C59.9696 52.0073 55.411 55.6896 51.5141 56.7726L51.5876 57.0614L51.5141 56.7726C50.6317 57.0614 49.4553 57.2058 48.0583 57.2058C44.9702 57.2058 40.9997 56.2672 37.838 53.3069L37.3233 53.5957C40.632 56.7004 44.7496 57.7112 47.9848 57.7112C49.3817 57.7112 50.6317 57.4946 51.5876 57.2058C55.705 56.0505 60.3373 52.3683 61.9549 47.4585C62.396 46.1589 62.6901 44.5705 62.6901 42.7654C62.6901 39.8051 61.8079 36.3394 59.2344 33.4513Z" fill="#7A7A7A"/>
<path d="M40.5581 52.0074H46.1461V50.2024H40.5581V52.0074Z" fill="#7A7A7A"/>
<path d="M43.4259 39.0111C43.5729 39.1555 43.72 39.2277 43.7935 39.2999C43.867 39.3721 43.867 39.3721 43.867 39.3721C43.867 39.4443 43.7935 39.5887 43.6464 39.7331C43.5729 39.8054 43.4994 39.8775 43.4259 39.8775C43.4259 39.8775 43.3523 39.8775 43.3523 39.9498C43.1318 40.0942 43.0583 40.3107 43.1318 40.5274C43.2053 40.6718 43.3523 40.7439 43.4994 40.7439C43.5729 40.7439 43.6464 40.7439 43.72 40.6718C43.72 40.6718 43.9406 40.5274 44.2347 40.3107C44.4553 40.0942 44.7494 39.8054 44.7494 39.2999V39.2277C44.6758 38.8667 44.4553 38.6501 44.2347 38.4335C43.9406 38.1447 43.4994 37.9281 43.2054 37.6393C43.0583 37.4949 42.9112 37.4227 42.8377 37.3505C42.8377 37.2783 42.7642 37.2783 42.7642 37.2783C42.7642 37.2783 42.7642 37.2783 42.7642 37.2061C42.8377 37.0617 43.2053 36.7007 43.6464 36.4119C43.867 36.2675 44.0141 36.1231 44.1611 35.9787C44.2347 35.9064 44.3082 35.8343 44.3817 35.762C44.4553 35.6899 44.5288 35.5455 44.5288 35.3288C44.5288 34.8956 44.2347 34.679 44.0141 34.4624C43.7935 34.2458 43.4994 34.1736 43.2054 33.957C42.9848 33.8126 42.6906 33.8847 42.6171 34.1014C42.4701 34.318 42.5436 34.6068 42.7642 34.679C43.0583 34.8956 43.3523 35.04 43.4994 35.1122C43.5729 35.1844 43.5729 35.1844 43.6464 35.1844C43.5729 35.2566 43.4994 35.3288 43.3523 35.4011C43.1318 35.6176 42.7642 35.8343 42.4701 36.123C42.176 36.4118 41.8818 36.7007 41.8818 37.1339C41.8818 37.4949 42.1024 37.7837 42.323 38.0003C42.6906 38.5057 43.1318 38.7945 43.4259 39.0111Z" fill="#7A7A7A"/>
<path d="M40.779 38.7217C40.926 38.8661 41.0731 38.9384 41.1466 39.0106C41.2201 39.0828 41.2201 39.0828 41.2201 39.0828C41.2201 39.155 41.1466 39.2994 40.9996 39.4438C40.926 39.516 40.8525 39.5882 40.779 39.5882C40.779 39.5882 40.7054 39.5882 40.7054 39.6604C40.4849 39.8048 40.4113 40.0214 40.4849 40.238C40.5584 40.3825 40.7054 40.4546 40.926 40.4546C40.9996 40.4546 41.0731 40.4546 41.1466 40.3825C41.1466 40.3825 41.3672 40.238 41.6613 40.0214C41.8819 39.8048 42.176 39.4438 42.176 39.0106V38.9384C42.1025 38.5773 41.8819 38.3608 41.6613 38.1441C41.2937 37.8553 40.926 37.6388 40.5584 37.3499C40.4113 37.2055 40.2643 37.1333 40.1907 37.0611C40.1907 36.9889 40.1172 36.9889 40.1172 36.9889C40.1172 36.9889 40.1172 36.9889 40.1172 36.9167C40.1907 36.7723 40.5584 36.4113 40.9996 36.1225C41.2201 35.9781 41.3672 35.8337 41.5143 35.6893C41.5878 35.6171 41.6613 35.5449 41.7348 35.4727C41.8084 35.4005 41.8819 35.2561 41.8819 35.0395C41.8819 34.6062 41.5878 34.3897 41.3672 34.173C41.1466 33.9565 40.8525 33.8121 40.5584 33.6677C40.3378 33.5233 40.0437 33.5954 39.9702 33.8121C39.8231 34.0286 39.8966 34.3174 40.1172 34.3897C40.4113 34.6062 40.7054 34.7506 40.8525 34.8229C40.926 34.8951 40.926 34.8951 40.9996 34.8951C40.926 34.9673 40.8525 35.0395 40.7054 35.1117C40.4849 35.3283 40.1172 35.5449 39.8231 35.8337C39.529 36.1225 39.2349 36.4113 39.2349 36.8445C39.2349 37.2055 39.4555 37.4943 39.676 37.7109C40.0437 38.2164 40.4849 38.4329 40.779 38.7217Z" fill="#7A7A7A"/>
<path d="M45.9259 38.7221C46.073 38.8665 46.22 39.0109 46.2936 39.0831C46.2936 39.1553 46.3671 39.1553 46.3671 39.1553C46.3671 39.2275 46.22 39.3719 46.073 39.5163C45.9995 39.5885 45.9259 39.5885 45.8524 39.6607H45.779C45.5584 39.7329 45.4113 40.0217 45.4848 40.2383C45.5584 40.3827 45.7054 40.5271 45.8524 40.5271C45.9259 40.5271 45.9995 40.5271 46.073 40.5271C46.073 40.5271 46.2936 40.4549 46.5877 40.2383C46.8818 40.0939 47.1759 39.8051 47.2495 39.2997V39.2275C47.2495 38.8665 47.1024 38.5777 46.8818 38.361C46.5877 38.0722 46.2201 37.7113 45.9259 37.4225C45.779 37.278 45.7054 37.1336 45.6319 37.0614C45.6319 36.9892 45.5584 36.9892 45.5584 36.9892C45.5584 36.9892 45.5584 36.9892 45.5584 36.917C45.6319 36.7726 46.073 36.4838 46.5142 36.2672C46.7348 36.1228 46.9553 36.0506 47.1024 35.9061C47.1759 35.834 47.2495 35.7617 47.323 35.6896C47.3965 35.6173 47.47 35.4729 47.5436 35.3285C47.6171 34.9676 47.3965 34.6065 47.1759 34.3899C46.9553 34.1733 46.7348 33.9567 46.4406 33.8123C46.2201 33.6679 45.9259 33.6679 45.779 33.8845C45.6319 34.1011 45.6319 34.3177 45.8524 34.5343C46.1465 34.7509 46.3671 34.9676 46.5142 35.112C46.5877 35.1841 46.5877 35.1841 46.5877 35.2564C46.5142 35.3285 46.4406 35.4008 46.2936 35.4729C45.9995 35.6173 45.6319 35.834 45.3378 36.0506C45.0437 36.2672 44.676 36.556 44.6025 36.9892C44.529 37.3502 44.7496 37.639 44.8966 37.8557C45.2643 38.1445 45.6319 38.4333 45.9259 38.7221Z" fill="#7A7A7A"/>
<path d="M51.5874 52.0072H55.1902V50.5632H51.5874V52.0072Z" fill="#7A7A7A"/>
<path d="M46.5874 52.0073H51.2196V50.3467H46.5874V52.0073Z" fill="#7A7A7A"/>
<path d="M57.0286 43.9929C57.0286 44.2096 56.9551 44.4984 56.8815 44.715C56.5139 46.3756 55.6316 47.8919 54.3816 48.9749C54.1611 49.1193 54.014 49.2637 53.7934 49.4803C53.7199 49.5525 52.1022 50.4912 51.2935 50.7077C51.1465 50.78 50.9259 50.78 50.7788 50.8521C51.4406 51.0688 52.1758 51.141 52.9111 51.141C53.5728 51.141 54.3081 51.0688 54.8964 50.8521C55.6316 50.6356 56.2933 50.3468 56.8815 49.9136C56.9551 49.9136 57.1021 49.8413 57.1021 49.7692C57.3227 49.6247 57.4698 49.4803 57.6168 49.3359C58.7198 48.3251 59.602 47.0255 59.8962 45.5092C59.9697 45.076 60.0432 44.5706 60.0432 44.0652H57.0286V43.9929Z" fill="#7A7A7A"/>
<path d="M52.5431 43.1262C52.5431 43.4151 52.4696 43.7039 52.3961 43.9927C52.0284 45.7255 51.0726 47.314 49.8226 48.4692C49.7491 48.5414 49.6756 48.6136 49.6021 48.6858C49.455 48.8302 49.2344 48.9746 49.0874 49.119C49.0874 49.119 49.0874 49.119 49.0138 49.1913C49.0138 49.1913 48.7932 49.4078 48.6462 49.4801C48.4991 49.5522 48.3521 49.6245 48.205 49.6966C48.205 49.6966 48.205 49.6966 48.1315 49.6966C47.5433 50.0577 46.8815 50.3465 46.2198 50.5631C46.1463 50.5631 46.1463 50.5631 46.0728 50.5631C46.8815 50.8519 47.7638 50.9963 48.6462 50.9963C49.2344 50.9963 49.8226 50.9241 50.3373 50.7797C50.4843 50.7797 50.7049 50.7075 50.852 50.6353C51.6608 50.4187 52.3961 50.0577 53.0578 49.6245C53.2049 49.6245 53.7195 49.119 53.9401 48.9746C55.1901 47.8916 56.0724 46.3753 56.4401 44.7147C56.5136 44.4981 56.5136 44.2093 56.5871 43.9927C56.5871 43.7039 56.6607 43.4151 56.6607 43.1262H52.5431Z" fill="#7A7A7A"/>
<path d="M43.3528 49.3357C43.2793 49.3357 43.2057 49.408 43.2057 49.408C39.5294 49.408 36.8824 47.5307 36.1471 44.1373C36.0736 43.8484 36.2942 43.5596 36.5883 43.4874C36.8824 43.4152 37.1765 43.6318 37.2501 43.9206C37.7647 46.3755 39.4559 47.8195 41.8822 48.2528C41.9558 48.2528 42.0293 48.2528 42.1763 48.2528C42.544 48.3249 42.8381 48.3249 43.2057 48.3249C43.4999 48.3249 43.7204 48.5416 43.7204 48.8304C43.794 49.1192 43.5734 49.2636 43.3528 49.3357ZM34.603 42.1877C34.603 46.9531 38.5 50.7798 43.3528 50.7798C44.1616 50.7798 44.8968 50.6354 45.6321 50.491C45.7056 50.491 45.7056 50.491 45.7792 50.491C46.4409 50.2744 47.6908 49.6246 47.6908 49.6246C47.6908 49.6246 47.6908 49.6246 47.7644 49.6246C47.7644 49.6246 48.0585 49.4802 48.2055 49.408C48.2791 49.3357 48.5732 49.1913 48.5732 49.1192C48.5732 49.1192 48.5732 49.1192 48.6467 49.0469C48.7938 48.9025 49.0144 48.7581 49.1614 48.6137C49.2349 48.5416 49.3085 48.4693 49.382 48.3972C50.632 47.2419 51.5878 45.6535 51.9554 43.9206C52.029 43.6318 52.029 43.343 52.1025 43.0542C52.1025 42.7654 52.176 42.4765 52.176 42.1877H34.603Z" fill="#7A7A7A"/>
<path d="M58.793 25.3646L58.4253 25.1479L57.9842 25.7978L58.3518 26.0144C58.3518 26.0144 58.4989 26.0866 58.5724 26.0866C58.6459 26.0866 58.7195 26.0866 58.793 26.0866C58.8665 26.0866 58.94 26.0144 58.94 25.9422C59.0136 25.87 59.0136 25.7256 59.0136 25.6534C59.0136 25.509 58.94 25.4368 58.793 25.3646ZM29.5292 33.0902C29.4556 33.018 29.3086 33.018 29.2351 33.018C29.1616 33.018 29.0881 33.1624 29.0145 33.3068L28.7939 33.6679L29.4556 34.0288L29.6027 33.6679C29.6027 33.5956 29.6762 33.5234 29.6762 33.4512C29.6762 33.379 29.6762 33.3068 29.6027 33.2346C29.6762 33.1624 29.6027 33.0902 29.5292 33.0902ZM41.9553 60.5992C41.7347 60.527 41.5876 60.5992 41.3671 60.6714C41.22 60.8158 41.0729 61.0324 40.9259 61.3935C40.8524 61.7544 40.8524 62.0432 40.9259 62.2599C40.9994 62.4764 41.1465 62.6209 41.3671 62.6209C41.5876 62.6931 41.8082 62.6931 41.9553 62.5487C42.1023 62.4043 42.2494 62.1876 42.3965 61.7544C42.47 61.3935 42.5435 61.1768 42.47 60.9602C42.3229 60.8158 42.1759 60.6714 41.9553 60.5992ZM67.3221 38.4331C67.3221 38.5054 67.3956 38.5054 67.4692 38.5775C67.5427 38.5775 67.6162 38.5775 67.6897 38.5775C67.8368 38.5775 67.9103 38.5054 67.9103 38.4331C67.9839 38.361 67.9839 38.2166 67.9103 38.0722L67.8368 37.7111L67.1015 37.8555L67.175 38.2166C67.175 38.2887 67.2486 38.361 67.3221 38.4331ZM54.3078 60.4548C54.1608 60.3104 53.9402 60.3104 53.7196 60.3826C53.499 60.4548 53.3519 60.5992 53.2784 60.8158C53.2049 61.0324 53.2784 61.3212 53.3519 61.6823C53.499 62.0432 53.646 62.2599 53.7931 62.4043C53.9402 62.5487 54.1608 62.5487 54.3813 62.4764C54.6019 62.4043 54.749 62.2599 54.8225 62.0432C54.896 61.8267 54.8225 61.5379 54.6755 61.1768C54.6755 60.7436 54.5284 60.527 54.3078 60.4548ZM61.5135 27.8194C61.2929 27.8916 61.0723 28.036 60.7782 28.3249C60.4841 28.6137 60.337 28.8302 60.337 29.0469C60.337 29.2634 60.337 29.4078 60.4841 29.5523C60.6311 29.6967 60.7782 29.7689 60.9988 29.6967C61.2194 29.6245 61.4399 29.4801 61.7341 29.1913C61.9547 28.9025 62.1017 28.6858 62.1752 28.5414C62.1752 28.3249 62.1752 28.1805 62.0282 28.036C61.8811 27.8194 61.7341 27.7472 61.5135 27.8194ZM66.5868 28.6137C62.1017 22.5486 55.1902 19.9494 50.0432 19.3718C44.8228 18.7942 36.1466 20.0938 29.6027 27.2418C23.0588 34.3898 23.5735 43.1263 23.5735 43.5595C23.5735 43.7761 23.7205 47.0252 24.5294 49.6967C25.4117 52.5126 27.1028 54.9675 27.1763 55.1119C27.1763 55.1119 27.6175 49.4079 28.2792 48.1804C31.0733 49.4801 33.8673 50.5631 33.8673 50.5631C33.8673 50.5631 31.8085 47.4584 31.735 43.4151C31.4409 40.0216 32.6908 35.9783 35.1173 33.0902C40.4112 26.7364 47.4698 27.1696 47.4698 27.1696C47.4698 27.1696 55.0431 26.6642 60.337 33.5234C65.631 40.4548 62.5429 47.8916 62.5429 47.8916C62.5429 47.8916 61.587 52.0071 56.8812 55.4007C52.1756 58.7942 47.2492 58.4331 47.2492 58.4331C47.2492 58.4331 40.4847 58.3609 35.8526 53.379L35.779 53.3068L36.8819 52.5126C36.8819 52.5126 34.6761 51.7183 32.6174 50.9963C30.5586 50.2021 28.7939 49.4079 28.7939 49.4079C28.7939 49.4079 28.3528 52.5126 28.2057 54.0288C28.0587 55.5451 27.9116 58.6498 27.9116 58.6498L29.0145 57.8555C31.2203 60.3104 37.0289 66.3754 47.8374 66.3754C59.0136 66.3754 65.484 58.4331 65.484 58.4331C65.484 58.4331 69.3809 54.6064 70.9249 47.8916C72.3955 41.2491 70.9985 34.6786 66.5868 28.6137ZM25.9999 45.2202L25.8529 42.7653L26.6616 42.6931L26.7351 44.2815L27.3234 44.2093L27.2498 42.7653L28.0587 42.6931L28.1322 44.1371L28.8675 44.0649L28.7939 42.5487L29.6762 42.4765L29.8233 45.0035L25.9999 45.2202ZM29.8968 40.0938L28.5734 40.5271L29.7497 41.2491L29.6027 42.2599L27.7645 41.0324L25.8529 41.7544L25.9999 40.7436L27.2498 40.3826L26.1469 39.6606L26.294 38.6498L27.9851 39.805L30.0439 39.0107L29.8968 40.0938ZM30.1174 38.7219L26.441 37.6389L26.8822 36.1949C26.9557 35.9061 27.1763 35.6894 27.3969 35.545C27.6175 35.4729 27.9116 35.4729 28.2792 35.545C28.6469 35.6894 28.941 35.8339 29.0881 36.0505C29.2351 36.2671 29.2351 36.5559 29.1616 36.9169L29.0881 37.4223L30.4115 37.8555L30.1174 38.7219ZM31.9556 34.1732L30.7056 34.101C30.5586 34.101 30.4115 34.101 30.338 34.101C30.2644 34.101 30.1909 34.1732 30.1174 34.2455L30.0439 34.3176L31.4409 35.0397L30.9997 35.8339L27.6175 34.101L28.3528 32.7292C28.4998 32.4404 28.6469 32.296 28.7204 32.1515C28.8675 32.0071 29.0145 32.0071 29.2351 32.0071C29.4556 32.0071 29.6027 32.0794 29.8233 32.1515C30.0439 32.2238 30.1909 32.3682 30.2644 32.5126C30.338 32.657 30.4115 32.8014 30.485 32.9458C30.485 33.018 30.485 33.1624 30.485 33.3068C30.5586 33.2346 30.6321 33.1624 30.7056 33.1624C30.7791 33.1624 30.8527 33.1624 30.9262 33.0902C31.0733 33.0902 31.1468 33.0902 31.2203 33.0902L32.3968 33.1624L31.9556 34.1732ZM32.6908 33.018L29.6762 30.7075L31.2203 28.7581L31.8821 29.2634L30.9262 30.4909L31.4409 30.8519L32.3232 29.6967L32.9114 30.1299L32.0291 31.2851L32.6174 31.7183L33.5732 30.4187L34.2349 30.9963L32.6908 33.018ZM35.9995 29.1913C35.9261 29.4078 35.779 29.6245 35.5584 29.7689C35.1908 30.1299 34.8231 30.2743 34.529 30.2021C34.2349 30.1299 33.9408 29.9855 33.6467 29.7689L34.2349 29.119C34.382 29.2634 34.529 29.3357 34.6026 29.3357C34.7496 29.4078 34.9702 29.3357 35.0437 29.1913C35.1173 29.119 35.1908 28.9746 35.1908 28.9025C35.1908 28.8302 35.1908 28.6858 35.1173 28.6137C35.0437 28.5414 34.9702 28.4693 34.8231 28.4693C34.7496 28.4693 34.529 28.5414 34.3084 28.6137C33.9408 28.8302 33.5732 28.9025 33.3526 28.9025C33.0585 28.9025 32.8379 28.7581 32.6908 28.5414C32.5438 28.397 32.4703 28.2526 32.3968 28.036C32.3232 27.8194 32.3232 27.675 32.3968 27.4584C32.4703 27.2418 32.6174 27.0252 32.8379 26.8808C33.132 26.592 33.4261 26.5198 33.6467 26.4476C33.9408 26.4476 34.2349 26.592 34.529 26.8086L33.9408 27.4584C33.7937 27.314 33.7202 27.314 33.5732 27.314C33.4996 27.314 33.3526 27.314 33.279 27.4584C33.2055 27.5306 33.132 27.6028 33.132 27.675C33.132 27.7472 33.132 27.8194 33.2055 27.8916C33.279 27.9638 33.279 27.9638 33.3526 27.9638C33.4261 27.9638 33.4996 27.9638 33.6467 27.8916C34.0143 27.675 34.3084 27.6028 34.529 27.5306C34.7496 27.5306 34.8967 27.5306 35.1173 27.6028C35.2643 27.675 35.4849 27.7472 35.5584 27.8916C35.7055 28.036 35.8526 28.2526 35.9261 28.4693C36.0731 28.8302 36.0731 28.9746 35.9995 29.1913ZM38.4995 27.4584C38.426 27.675 38.2054 27.8194 37.9848 27.9638C37.5436 28.2526 37.176 28.3249 36.8819 28.2526C36.5878 28.1805 36.2936 27.9638 36.0731 27.675L36.8083 27.1696C36.9554 27.314 37.0289 27.3862 37.1025 27.4584C37.2495 27.5306 37.3966 27.5306 37.5436 27.4584C37.6907 27.3862 37.6907 27.314 37.7642 27.1696C37.7642 27.0974 37.7642 26.953 37.6907 26.8808C37.6172 26.8086 37.5436 26.7364 37.4701 26.7364C37.3966 26.7364 37.176 26.7364 36.9554 26.8086C36.5142 26.953 36.2201 26.953 35.9261 26.8808C35.7055 26.8086 35.4849 26.6642 35.3378 26.4476C35.2643 26.3032 35.1908 26.0866 35.1173 25.9422C35.1173 25.7256 35.1173 25.5812 35.2643 25.3646C35.3378 25.1479 35.5584 25.0035 35.8526 24.8591C36.1466 24.4982 36.4407 24.4259 36.7348 24.4982C37.0289 24.5703 37.2495 24.7147 37.5436 25.0035L36.8083 25.509C36.6613 25.3646 36.5878 25.2923 36.5142 25.2923C36.4407 25.2923 36.2936 25.2923 36.2201 25.3646C36.1466 25.4368 36.0731 25.509 36.0731 25.5812C36.0731 25.6534 36.0731 25.7256 36.1466 25.7978C36.1466 25.87 36.2201 25.87 36.2936 25.87C36.3672 25.87 36.4407 25.87 36.6613 25.7978C37.1025 25.6534 37.3966 25.5812 37.6172 25.5812C37.8378 25.5812 37.9848 25.6534 38.2054 25.7256C38.3525 25.7978 38.4995 25.9422 38.6466 26.1588C38.7936 26.3754 38.8672 26.592 38.8672 26.8086C38.6466 27.0252 38.6466 27.2418 38.4995 27.4584ZM48.2051 24.2815C47.9845 24.5703 47.6904 24.7147 47.3227 24.7147C46.9551 24.7147 46.661 24.5703 46.4404 24.2815C46.2198 23.9927 46.0727 23.6317 46.0727 23.1985C46.0727 22.7653 46.1463 22.4042 46.4404 22.1154C46.661 21.8266 46.9551 21.6822 47.3227 21.6822C47.6904 21.6822 47.9845 21.8266 48.2051 22.1154C48.4257 22.4042 48.5727 22.7653 48.5727 23.1985C48.4992 23.6317 48.4257 23.9927 48.2051 24.2815ZM37.0289 61.7544L37.8377 60.4548L36.8083 59.8772L35.9995 61.1768L35.0437 60.6714L36.9554 57.4223L37.9113 57.9277L37.2495 59.083L38.2789 59.6606L38.9407 58.5054L39.8965 59.0107L37.9113 62.2599L37.0289 61.7544ZM43.3523 62.1155C43.2052 62.5487 43.0581 62.8375 42.8376 63.0541C42.617 63.2707 42.3965 63.4151 42.1023 63.4873C41.8082 63.5595 41.5141 63.5595 41.1465 63.4151C40.7788 63.2707 40.4847 63.1263 40.2641 62.9097C40.0435 62.6931 39.8965 62.4764 39.8965 62.1155C39.8229 61.7544 39.8965 61.3935 39.97 61.0324C40.1171 60.4548 40.4112 60.0216 40.8524 59.805C41.22 59.5883 41.7347 59.5162 42.2494 59.6606C42.764 59.805 43.1317 60.0938 43.3523 60.527C43.5728 61.0324 43.5728 61.5379 43.3523 62.1155ZM47.4698 61.61L46.3669 61.5379L46.1463 64.3537L45.1169 64.2093L45.3375 61.3935L44.2346 61.3212L44.3081 60.3826L47.5433 60.6714L47.4698 61.61ZM51.1462 62.332C50.9991 62.5487 50.6314 62.6931 50.2638 62.7653L49.6756 62.8375L49.8226 64.2093L48.7933 64.3537L48.2786 60.5992L50.0432 60.3826C50.4109 60.3104 50.705 60.3826 50.9256 60.5992C51.1461 60.7436 51.2932 61.0324 51.2932 61.3935C51.3667 61.8267 51.2932 62.1155 51.1462 62.332ZM55.9254 61.8267C55.9254 62.1155 55.7784 62.4043 55.5578 62.6209C55.3372 62.8375 55.1166 63.0541 54.749 63.1263C54.3813 63.2707 54.0872 63.2707 53.7931 63.2707C53.499 63.1985 53.2049 63.1263 52.9843 62.8375C52.7637 62.6209 52.5432 62.2599 52.3961 61.8988C52.1756 61.3212 52.1756 60.8158 52.3226 60.3826C52.4697 59.9494 52.8372 59.6606 53.3519 59.4439C53.8666 59.2274 54.3813 59.2995 54.749 59.5162C55.1902 59.7327 55.4843 60.0938 55.6313 60.6714C55.9254 61.1768 55.9989 61.5379 55.9254 61.8267ZM58.4253 61.4656L56.9548 59.083L55.9989 59.6606L55.5578 58.8663L58.3518 57.2057L58.8665 57.9999L57.9106 58.5775L59.3811 60.9602L58.4253 61.4656ZM68.7927 38.0722C68.8662 38.361 68.8662 38.5775 68.8662 38.7219C68.8662 38.8663 68.7191 39.0107 68.6456 39.1552C68.4986 39.2996 68.278 39.3718 68.0574 39.444C67.8368 39.5162 67.6897 39.5162 67.4692 39.444C67.3221 39.444 67.175 39.3718 67.028 39.2274C66.9544 39.1552 66.8809 39.083 66.8074 38.9386C66.8074 39.083 66.7339 39.1552 66.7339 39.2274C66.7339 39.2996 66.6603 39.2996 66.5868 39.444C66.5133 39.5162 66.4398 39.5884 66.3662 39.5884L65.4104 40.2382L65.1163 39.2996L66.1456 38.5775C66.2927 38.5054 66.3662 38.4331 66.3662 38.361C66.4398 38.2887 66.4398 38.2166 66.3662 38.1443V38.0722L64.8222 38.4331L64.6016 37.4945L68.3515 36.6281L68.7927 38.0722ZM58.94 26.8808C58.8665 26.8808 58.7195 26.8808 58.5724 26.8086C58.6459 26.8808 58.7195 26.953 58.7195 27.0252C58.7195 27.0974 58.7195 27.1696 58.7195 27.2418C58.7195 27.3862 58.7195 27.4584 58.7195 27.5306L58.4989 28.7581L57.6165 28.1805L57.8371 26.953C57.8371 26.8086 57.8371 26.6642 57.8371 26.592C57.8371 26.5198 57.7636 26.4476 57.6901 26.3754L57.6165 26.3032L56.8077 27.6028L55.9989 27.0974L58.0577 23.9205L59.3811 24.7147C59.6017 24.8591 59.8223 25.0035 59.8958 25.1479C59.9694 25.2923 60.0429 25.4368 60.0429 25.6534C60.0429 25.87 59.9694 26.0144 59.8223 26.231C59.6753 26.3754 59.6017 26.5198 59.4547 26.6642C59.2342 26.8086 59.0871 26.8808 58.94 26.8808ZM60.7047 30.5631C60.4105 30.4909 60.19 30.4187 59.8958 30.1299C59.6753 29.9133 59.4547 29.6245 59.4547 29.4078C59.3811 29.1913 59.3812 28.9025 59.5282 28.5414C59.6017 28.2526 59.8223 27.8916 60.1164 27.6028C60.5576 27.1696 60.9988 26.8808 61.4399 26.8808C61.8811 26.8086 62.2488 26.953 62.6163 27.314C62.984 27.675 63.131 28.036 63.131 28.4693C63.131 28.9025 62.8369 29.3357 62.4694 29.7689C62.1752 30.0577 61.8811 30.2743 61.587 30.4187C61.2929 30.5631 60.9988 30.5631 60.7047 30.5631ZM61.9546 32.296L64.3075 30.7075L63.7193 29.9133L64.5281 29.4078L66.1456 31.7183L65.3369 32.2238L64.8222 31.4295L62.4694 33.018L61.9546 32.296ZM63.131 33.8844L67.1015 33.379L67.5427 34.3176L64.5281 36.9169L64.0869 36.0505L64.6016 35.6895L64.1604 34.6064L63.4987 34.7508L63.131 33.8844ZM66.8809 51.7183C66.7339 52.0071 66.4397 52.2238 66.0721 52.2959C65.7045 52.3682 65.3369 52.3682 64.8957 52.1515C64.5281 51.935 64.234 51.7183 64.0869 51.3573C63.9398 50.9963 63.9398 50.7075 64.0869 50.4187C64.234 50.1299 64.5281 49.9133 64.8957 49.8411C65.2634 49.7689 65.631 49.7689 65.9987 49.9855C66.3662 50.2021 66.6603 50.4187 66.8074 50.7797C66.9545 51.1407 67.028 51.4295 66.8809 51.7183ZM67.028 42.4765L65.4104 42.5487L65.3369 41.61L66.9545 41.5379L69.1603 40.3104L69.2338 41.3212L67.9839 41.9711L69.3073 42.5487L69.3809 43.5595L67.028 42.4765ZM28.1322 36.4115C27.9851 36.4115 27.9116 36.4115 27.8381 36.4115C27.691 36.4837 27.6175 36.5559 27.544 36.7725L27.4704 36.9891L28.2792 37.2057L28.3528 36.9891C28.4263 36.8447 28.4263 36.7003 28.3528 36.6281C28.3528 36.5559 28.2057 36.4837 28.1322 36.4115ZM50.1903 61.3212C50.1167 61.2491 49.9697 61.2491 49.7491 61.2491H49.455L49.5285 62.1155H49.8226C50.0432 62.1155 50.1903 62.0432 50.2638 61.9711C50.3373 61.8988 50.3373 61.7544 50.3373 61.6823C50.2638 61.4656 50.2638 61.3935 50.1903 61.3212ZM66.3662 34.2455L64.9692 34.5343L65.2634 35.1118L66.3662 34.2455Z" fill="#7A7A7A"/>
<path d="M47.4703 18C33.5737 18 22.2505 29.1191 22.2505 42.7654C22.2505 48.1083 24.0152 53.0903 26.9563 57.1336L27.0298 56.2671C24.3828 52.3683 22.8387 47.7473 22.8387 42.7654C22.8387 29.408 33.8678 18.5054 47.4703 18.5054C61.0728 18.5054 72.1018 29.3358 72.1018 42.7654C72.1018 56.195 61.1464 67.0253 47.4703 67.0253C40.1911 67.0253 33.6472 63.9206 29.0885 58.9387L28.6473 59.2275C33.2796 64.3538 39.9705 67.5307 47.4703 67.5307C61.3669 67.5307 72.6901 56.4115 72.6901 42.7654C72.7636 29.1191 61.4405 18 47.4703 18Z" fill="#7A7A7A"/>
</g>
<defs>
<clipPath id="clip0">
<rect width="96" height="96" fill="white"/>
</clipPath>
</defs>
</svg>
